<svg width="40" height="41" viewBox="0 0 40 41" fill="none" xmlns="http://www.w3.org/2000/svg">
<path fill-rule="evenodd" clip-rule="evenodd" d="M3.375 29.75V8.375H36.625V29.75H3.375ZM36.625 6H3.375C2.74511 6 2.14102 6.25022 1.69562 6.69562C1.25022 7.14102 1 7.74511 1 8.375V32.125C1 32.7549 1.25022 33.359 1.69562 33.8044C2.14102 34.2498 2.74511 34.5 3.375 34.5H36.625C37.2549 34.5 37.859 34.2498 38.3044 33.8044C38.7498 33.359 39 32.7549 39 32.125V8.375C39 7.74511 38.7498 7.14102 38.3044 6.69562C37.859 6.25022 37.2549 6 36.625 6ZM34.25 20.4H24.75V27.525H34.25V20.4Z" fill="white"/>
</svg>
