<svg width="37" height="41" viewBox="0 0 37 41" fill="none" xmlns="http://www.w3.org/2000/svg">
<g clip-path="url(#clip0)">
<path d="M20.5324 5.55008L12.037 12.5001H2.29167C1.02552 12.5001 0 13.3391 0 14.3751V25.6251C0 26.6602 1.02552 27.5001 2.29167 27.5001H12.037L20.5324 34.4493C21.9675 35.6235 24.4444 34.7985 24.4444 33.1235V6.87665C24.4444 5.1993 21.9656 4.37821 20.5324 5.55008ZM32.2963 13.9938C31.1905 13.4993 29.7955 13.8251 29.1825 14.7321C28.5723 15.6391 28.9762 16.779 30.0848 17.2798C31.3175 17.8345 32.0833 18.8766 32.0833 20.0001C32.0833 21.1235 31.3175 22.1657 30.0858 22.7196C28.9772 23.2204 28.5733 24.3602 29.1834 25.2673C29.7974 26.1782 31.1934 26.5016 32.2972 26.0056C34.9928 24.7907 36.6676 22.4899 36.6676 19.9993C36.6676 17.5087 34.9928 15.2087 32.2963 13.9938Z" fill="white"/>
</g>
<defs>
<clipPath id="clip0">
<rect width="36.6667" height="40" fill="white" transform="translate(0.227539 0.400024)"/>
</clipPath>
</defs>
</svg>
